<svg data-v-1084b650="" xmlns="http://www.w3.org/2000/svg" viewBox="0 0 300 300"><!----> <!----> <rect data-v-1084b650="" fill="#ffffff" x="0" y="0" width="300px" height="300px" class="logo-background-square"></rect> <!----> <linearGradient data-v-1084b650="" gradientTransform="rotate(25)" id="7c30d715-f21c-6c19-1bd8-c6b4bb7d6559" x1="0%" y1="0%" x2="100%" y2="0%"><stop data-v-1084b650="" offset="0%" style="stop-color: rgb(135, 84, 78); stop-opacity: 1;"></stop> <stop data-v-1084b650="" offset="100%" style="stop-color: rgb(135, 84, 78); stop-opacity: 1;"></stop></linearGradient> <g data-v-1084b650="" id="f93f2c2e-9a02-08b2-a0a1-d1f2338874af" fill="url(#7c30d715-f21c-6c19-1bd8-c6b4bb7d6559)" stroke="none" transform="matrix(1,0,0,1,3.3539962768554688,0.010494232177734375)"><svg xmlns="http://www.w3.org/2000/svg" xmlns:xlink="http://www.w3.org/1999/xlink" version="1.1" x="0px" y="0px" viewBox="0 0 100 100" enable-background="new 0 0 100 100" xml:space="preserve"><path d="M67.779,85.551"></path><path d="M67.774,85.546"></path><path d="M67.775,85.548"></path><path d="M81.995,76.658h-3.114V41.107h2.443c1.099,0,1.998-0.5,1.998-1.111s0-1.112,0-1.112h0.005L63.329,14.442L43.331,38.884  c0,0,0,0.501,0,1.112s0.9,1.111,1.998,1.111h2.443v35.551H32.207v-8.147h13.338l-7.221-9.628h4.993l-6.665-8.888h3.33l-6.667-8.888  h3.332l-6.665-8.888l-6.665,8.888h3.334l-6.665,8.888h3.335l-6.665,8.888h5.001l-7.22,9.628h13.32v8.147h-9.765  c-0.732,0-1.332,0.602-1.332,1.332v1.777c0,0.735,0.6,1.337,1.332,1.337h64c0.732,0,1.332-0.602,1.332-1.337V77.99  C83.327,77.26,82.728,76.658,81.995,76.658z M58.883,54.438v4.445h-6.664v-4.445H58.883z M52.219,47.771v-4.444h6.664v4.444H52.219z   M61.106,76.658v-11.11h4.441v11.11H61.106z M74.436,54.438v4.445h-6.665v-4.445H74.436z M67.771,47.771v-4.444h6.665v4.444H67.771z  "></path></svg></g></svg>