<svg data-v-5f19e91b="" xmlns="http://www.w3.org/2000/svg" width="447" height="57" viewBox="0 0 447 57"><!----> <!----> <!----> <g data-v-5f19e91b="" id="bf27a123-25a1-8331-d380-9d2530361fae" fill="black" transform="matrix(2.159827160437883,0,0,2.159827160437883,74.42999043378845,0.6402073404275974)"><path d="M10.98 0.11L10.04 0.25L10.04 0.25Q9.93 0.84 9.86 1.73L9.86 1.73L9.86 1.73Q9.79 2.62 9.73 3.68L9.73 3.68L9.73 3.68Q9.67 4.75 9.65 5.90L9.65 5.90L9.65 5.90Q9.62 7.06 9.60 8.18L9.60 8.18L9.60 8.18Q9.56 10.79 9.58 13.76L9.58 13.76L9.58 13.76Q8.47 12.29 7.43 10.77L7.43 10.77L7.43 10.77Q6.38 9.25 5.45 7.82L5.45 7.82L5.45 7.82Q4.51 6.38 3.69 5.10L3.69 5.10L3.69 5.10Q2.87 3.82 2.23 2.84L2.23 2.84L2.23 2.84Q2.25 3.70 2.32 4.80L2.32 4.80L2.32 4.80Q2.39 5.91 2.47 7.06L2.47 7.06L2.47 7.06Q2.55 8.22 2.65 9.35L2.65 9.35L2.65 9.35Q2.74 10.49 2.85 11.42L2.85 11.42L2.85 11.42Q2.95 12.35 3.07 12.98L3.07 12.98L3.07 12.98Q3.18 13.61 3.28 13.76L3.28 13.76L4.19 13.90L4.23 14L4.23 14Q3.98 13.97 3.68 13.93L3.68 13.93L3.68 13.93Q3.43 13.90 3.09 13.88L3.09 13.88L3.09 13.88Q2.76 13.86 2.37 13.86L2.37 13.86L2.37 13.86Q1.92 13.86 1.58 13.88L1.58 13.88L1.58 13.88Q1.25 13.90 1.01 13.93L1.01 13.93L1.01 13.93Q0.74 13.97 0.55 14L0.55 14L0.55 13.86L1.27 13.76L1.27 13.76Q1.40 13.57 1.49 12.87L1.49 12.87L1.49 12.87Q1.58 12.17 1.65 11.16L1.65 11.16L1.65 11.16Q1.71 10.15 1.74 8.93L1.74 8.93L1.74 8.93Q1.78 7.70 1.79 6.46L1.79 6.46L1.79 6.46Q1.79 5.22 1.77 4.06L1.77 4.06L1.77 4.06Q1.75 2.90 1.72 2.02L1.72 2.02L1.72 2.02Q1.19 1.26 0.85 0.82L0.85 0.82L0.85 0.82Q0.50 0.38 0.36 0.38L0.36 0.38L0.06 0.38L0 0.25L0 0.25Q0.49 0.24 0.98 0.20L0.98 0.20L0.98 0.20Q1.40 0.17 1.88 0.12L1.88 0.12L1.88 0.12Q2.35 0.07 2.73-0.03L2.73-0.03L2.73-0.03Q2.95 0.55 3.35 1.29L3.35 1.29L3.35 1.29Q3.75 2.04 4.24 2.88L4.24 2.88L4.24 2.88Q4.72 3.71 5.26 4.58L5.26 4.58L5.26 4.58Q5.81 5.46 6.34 6.29L6.34 6.29L6.34 6.29Q7.59 8.23 9.03 10.32L9.03 10.32L9.03 10.32Q9.02 8.04 8.93 6.03L8.93 6.03L8.93 6.03Q8.89 5.18 8.83 4.31L8.83 4.31L8.83 4.31Q8.78 3.44 8.70 2.67L8.70 2.67L8.70 2.67Q8.62 1.89 8.51 1.26L8.51 1.26L8.51 1.26Q8.40 0.63 8.26 0.25L8.26 0.25L7.18 0.11L7.14-0.03L7.14-0.03Q7.41 0.01 7.70 0.04L7.70 0.04L7.70 0.04Q7.95 0.07 8.27 0.09L8.27 0.09L8.27 0.09Q8.60 0.11 8.95 0.11L8.95 0.11L8.95 0.11Q9.34 0.11 9.70 0.09L9.70 0.09L9.70 0.09Q10.05 0.07 10.33 0.04L10.33 0.04L10.33 0.04Q10.65 0.01 10.93-0.03L10.93-0.03L10.98 0.11ZM18.55 9.52L18.55 9.52L18.55 9.52Q18.66 9.79 18.87 10.30L18.87 10.30L18.87 10.30Q19.08 10.82 19.31 11.35L19.31 11.35L19.31 11.35Q19.54 11.89 19.77 12.29L19.77 12.29L19.77 12.29Q19.99 12.70 20.15 12.73L20.15 12.73L20.15 12.73Q19.73 12.96 19.27 13.30L19.27 13.30L19.27 13.30Q18.82 13.64 18.48 14L18.48 14L18.48 14Q18.41 13.69 18.23 13.14L18.23 13.14L18.23 13.14Q18.05 12.59 17.74 11.93L17.74 11.93L17.74 11.93Q17.47 12.19 17.07 12.55L17.07 12.55L17.07 12.55Q16.66 12.91 16.20 13.23L16.20 13.23L16.20 13.23Q15.74 13.55 15.24 13.78L15.24 13.78L15.24 13.78Q14.74 14 14.29 14L14.29 14L14.29 14Q13.97 14 13.63 13.91L13.63 13.91L13.63 13.91Q13.29 13.82 13.01 13.64L13.01 13.64L13.01 13.64Q12.73 13.47 12.55 13.22L12.55 13.22L12.55 13.22Q12.38 12.96 12.38 12.64L12.38 12.64L12.38 12.64Q12.38 12.25 12.78 11.80L12.78 11.80L12.78 11.80Q13.19 11.35 13.79 10.91L13.79 10.91L13.79 10.91Q14.39 10.47 15.09 10.05L15.09 10.05L15.09 10.05Q15.79 9.63 16.38 9.27L16.38 9.27L16.38 9.27Q15.95 8.72 15.56 8.48L15.56 8.48L15.56 8.48Q15.18 8.23 14.71 8.23L14.71 8.23L14.71 8.23Q14.52 8.23 14.20 8.34L14.20 8.34L14.20 8.34Q13.89 8.46 13.59 8.60L13.59 8.60L13.59 8.60Q13.23 8.75 12.87 8.95L12.87 8.95L12.87 8.95Q13.65 8.41 14.38 7.98L14.38 7.98L14.38 7.98Q14.69 7.80 15.01 7.63L15.01 7.63L15.01 7.63Q15.33 7.46 15.63 7.32L15.63 7.32L15.63 7.32Q15.93 7.18 16.19 7.10L16.19 7.10L16.19 7.10Q16.45 7.01 16.63 7.01L16.63 7.01L16.63 7.01Q16.98 7.01 17.28 7.31L17.28 7.31L17.28 7.31Q17.58 7.62 17.83 8.03L17.83 8.03L17.83 8.03Q18.07 8.44 18.25 8.86L18.25 8.86L18.25 8.86Q18.42 9.28 18.55 9.52ZM15.81 12.64L15.81 12.64L15.81 12.64Q16.14 12.64 16.45 12.54L16.45 12.54L16.45 12.54Q16.76 12.45 16.99 12.26L16.99 12.26L16.99 12.26Q17.22 12.08 17.36 11.83L17.36 11.83L17.36 11.83Q17.50 11.58 17.50 11.28L17.50 11.28L17.50 11.28Q17.39 11.10 17.26 10.88L17.26 10.88L17.26 10.88Q17.14 10.67 17.02 10.47L17.02 10.47L17.02 10.47Q16.91 10.22 16.79 9.99L16.79 9.99L16.79 9.99Q16.67 9.76 16.55 9.60L16.55 9.60L16.55 9.60Q16.24 9.72 15.80 9.92L15.80 9.92L15.80 9.92Q15.36 10.12 14.95 10.39L14.95 10.39L14.95 10.39Q14.55 10.67 14.26 10.99L14.26 10.99L14.26 10.99Q13.97 11.31 13.97 11.66L13.97 11.66L13.97 11.66Q13.97 11.86 14.12 12.03L14.12 12.03L14.12 12.03Q14.27 12.21 14.51 12.34L14.51 12.34L14.51 12.34Q14.76 12.47 15.09 12.56L15.09 12.56L15.09 12.56Q15.43 12.64 15.81 12.64ZM26.05 11.66L26.05 11.66L26.05 11.66Q25.89 11.77 25.68 11.98L25.68 11.98L25.68 11.98Q25.47 12.19 25.21 12.40L25.21 12.40L25.21 12.40Q24.96 12.60 24.65 12.75L24.65 12.75L24.65 12.75Q24.35 12.91 24.00 12.91L24.00 12.91L24.00 12.91Q23.60 12.91 23.18 12.71L23.18 12.71L23.18 12.71Q22.76 12.52 22.41 12.17L22.41 12.17L22.41 12.17Q22.06 11.83 21.84 11.35L21.84 11.35L21.84 11.35Q21.62 10.88 21.62 10.32L21.62 10.32L21.62 10.32Q21.62 9.86 21.78 9.48L21.78 9.48L21.78 9.48Q21.95 9.11 22.22 8.82L22.22 8.82L22.22 8.82Q22.48 8.53 22.83 8.27L22.83 8.27L22.83 8.27Q23.17 8.02 23.53 7.78L23.53 7.78L23.53 7.78Q24.11 7.42 24.58 7.21L24.58 7.21L24.58 7.21Q25.06 7 25.38 7L25.38 7L25.38 7Q25.77 7 26.20 7.13L26.20 7.13L26.20 7.13Q26.63 7.27 27.11 7.38L27.11 7.38L27.11 7.38Q27.59 7.49 28.13 7.50L28.13 7.50L28.13 7.50Q28.66 7.52 29.25 7.29L29.25 7.29L29.25 7.29Q29.05 7.49 28.84 7.60L28.84 7.60L28.84 7.60Q28.63 7.71 28.42 7.80L28.42 7.80L28.42 7.80Q28.21 7.88 28.01 7.97L28.01 7.97L28.01 7.97Q27.80 8.05 27.61 8.19L27.61 8.19L27.61 8.19Q27.45 9.67 27.57 10.87L27.57 10.87L27.57 10.87Q27.69 12.07 27.99 13.05L27.99 13.05L27.99 13.05Q28.29 14.03 28.73 14.83L28.73 14.83L28.73 14.83Q29.16 15.62 29.64 16.32L29.64 16.32L29.64 16.32Q30.11 17.01 30.58 17.63L30.58 17.63L30.58 17.63Q31.05 18.26 31.43 18.88L31.43 18.88L31.43 18.88Q31.81 19.50 32.04 20.15L32.04 20.15L32.04 20.15Q32.27 20.80 32.27 21.57L32.27 21.57L32.27 21.57Q32.27 22.51 31.84 23.41L31.84 23.41L31.84 23.41Q31.42 24.32 30.61 25.02L30.61 25.02L30.61 25.02Q29.81 25.73 28.65 26.17L28.65 26.17L28.65 26.17Q27.50 26.60 26.05 26.60L26.05 26.60L26.05 26.60Q24.88 26.60 24.04 26.40L24.04 26.40L24.04 26.40Q23.20 26.19 22.64 25.94L22.64 25.94L22.64 25.94Q21.98 25.65 21.55 25.27L21.55 25.27L21.55 25.27Q22.05 25.61 22.72 25.86L22.72 25.86L22.72 25.86Q23.31 26.08 24.14 26.26L24.14 26.26L24.14 26.26Q24.96 26.45 26.05 26.45L26.05 26.45L26.05 26.45Q26.98 26.45 27.87 26.24L27.87 26.24L27.87 26.24Q28.76 26.04 29.46 25.60L29.46 25.60L29.46 25.60Q30.16 25.16 30.59 24.46L30.59 24.46L30.59 24.46Q31.02 23.76 31.02 22.76L31.02 22.76L31.02 22.76Q31.02 21.97 30.70 21.27L30.70 21.27L30.70 21.27Q30.37 20.57 29.86 19.86L29.86 19.86L29.86 19.86Q29.34 19.15 28.73 18.37L28.73 18.37L28.73 18.37Q28.13 17.58 27.57 16.62L27.57 16.62L27.57 16.62Q27.02 15.65 26.60 14.44L26.60 14.44L26.60 14.44Q26.18 13.23 26.05 11.66ZM25.98 10.47L25.98 10.47L25.98 10.47Q25.98 9.81 26.02 9.36L26.02 9.36L26.02 9.36Q26.05 8.90 26.28 8.41L26.28 8.41L26.28 8.41Q26.11 8.33 25.82 8.24L25.82 8.24L25.82 8.24Q25.52 8.15 25.16 8.09L25.16 8.09L25.16 8.09Q24.81 8.02 24.41 8.00L24.41 8.00L24.41 8.00Q24.01 7.98 23.62 8.04L23.62 8.04L23.62 8.04Q23.28 8.15 23.16 8.44L23.16 8.44L23.16 8.44Q23.03 8.74 23.03 9.07L23.03 9.07L23.03 9.07Q23.03 9.81 23.34 10.34L23.34 10.34L23.34 10.34Q23.66 10.86 24.12 11.17L24.12 11.17L24.12 11.17Q24.58 11.48 25.11 11.56L25.11 11.56L25.11 11.56Q25.63 11.65 26.05 11.51L26.05 11.51L26.05 11.51Q26.05 11.28 26.02 11.02L26.02 11.02L26.02 11.02Q25.98 10.75 25.98 10.47ZM36.20 9.52L36.20 9.52L36.20 9.52Q36.32 9.79 36.53 10.30L36.53 10.30L36.53 10.30Q36.74 10.82 36.97 11.35L36.97 11.35L36.97 11.35Q37.20 11.89 37.42 12.29L37.42 12.29L37.42 12.29Q37.65 12.70 37.80 12.73L37.80 12.73L37.80 12.73Q37.38 12.96 36.93 13.30L36.93 13.30L36.93 13.30Q36.47 13.64 36.13 14L36.13 14L36.13 14Q36.06 13.69 35.88 13.14L35.88 13.14L35.88 13.14Q35.70 12.59 35.39 11.93L35.39 11.93L35.39 11.93Q35.13 12.19 34.72 12.55L34.72 12.55L34.72 12.55Q34.31 12.91 33.85 13.23L33.85 13.23L33.85 13.23Q33.39 13.55 32.89 13.78L32.89 13.78L32.89 13.78Q32.40 14 31.95 14L31.95 14L31.95 14Q31.63 14 31.28 13.91L31.28 13.91L31.28 13.91Q30.94 13.82 30.66 13.64L30.66 13.64L30.66 13.64Q30.38 13.47 30.21 13.22L30.21 13.22L30.21 13.22Q30.03 12.96 30.03 12.64L30.03 12.64L30.03 12.64Q30.03 12.25 30.44 11.80L30.44 11.80L30.44 11.80Q30.84 11.35 31.44 10.91L31.44 10.91L31.44 10.91Q32.05 10.47 32.75 10.05L32.75 10.05L32.75 10.05Q33.45 9.63 34.03 9.27L34.03 9.27L34.03 9.27Q33.60 8.72 33.22 8.48L33.22 8.48L33.22 8.48Q32.83 8.23 32.37 8.23L32.37 8.23L32.37 8.23Q32.17 8.23 31.86 8.34L31.86 8.34L31.86 8.34Q31.54 8.46 31.25 8.60L31.25 8.60L31.25 8.60Q30.88 8.75 30.52 8.95L30.52 8.95L30.52 8.95Q31.30 8.41 32.03 7.98L32.03 7.98L32.03 7.98Q32.34 7.80 32.66 7.63L32.66 7.63L32.66 7.63Q32.98 7.46 33.29 7.32L33.29 7.32L33.29 7.32Q33.59 7.18 33.84 7.10L33.84 7.10L33.84 7.10Q34.10 7.01 34.29 7.01L34.29 7.01L34.29 7.01Q34.64 7.01 34.94 7.31L34.94 7.31L34.94 7.31Q35.24 7.62 35.48 8.03L35.48 8.03L35.48 8.03Q35.73 8.44 35.90 8.86L35.90 8.86L35.90 8.86Q36.08 9.28 36.20 9.52ZM33.46 12.64L33.46 12.64L33.46 12.64Q33.80 12.64 34.10 12.54L34.10 12.54L34.10 12.54Q34.41 12.45 34.64 12.26L34.64 12.26L34.64 12.26Q34.87 12.08 35.01 11.83L35.01 11.83L35.01 11.83Q35.15 11.58 35.15 11.28L35.15 11.28L35.15 11.28Q35.04 11.10 34.92 10.88L34.92 10.88L34.92 10.88Q34.79 10.67 34.68 10.47L34.68 10.47L34.68 10.47Q34.57 10.22 34.45 9.99L34.45 9.99L34.45 9.99Q34.33 9.76 34.20 9.60L34.20 9.60L34.20 9.60Q33.89 9.72 33.45 9.92L33.45 9.92L33.45 9.92Q33.01 10.12 32.61 10.39L32.61 10.39L32.61 10.39Q32.20 10.67 31.91 10.99L31.91 10.99L31.91 10.99Q31.63 11.31 31.63 11.66L31.63 11.66L31.63 11.66Q31.63 11.86 31.77 12.03L31.77 12.03L31.77 12.03Q31.92 12.21 32.16 12.34L32.16 12.34L32.16 12.34Q32.41 12.47 32.75 12.56L32.75 12.56L32.75 12.56Q33.08 12.64 33.46 12.64ZM43.44 7.06L43.44 7.06L43.44 7.06Q43.65 7.06 43.89 7.07L43.89 7.07L43.89 7.07Q44.13 7.08 44.28 7.15L44.28 7.15L44.28 7.15Q44.13 7.36 43.99 7.69L43.99 7.69L43.99 7.69Q43.85 8.01 43.74 8.30L43.74 8.30L43.74 8.30Q43.60 8.67 43.48 9.03L43.48 9.03L43.48 9.03Q43.39 8.97 43.23 8.92L43.23 8.92L43.23 8.92Q43.11 8.88 42.92 8.83L42.92 8.83L42.92 8.83Q42.73 8.79 42.46 8.79L42.46 8.79L42.46 8.79Q42.04 8.79 41.77 9.02L41.77 9.02L41.77 9.02Q41.50 9.25 41.33 9.63L41.33 9.63L41.33 9.63Q41.16 10.00 41.07 10.44L41.07 10.44L41.07 10.44Q40.98 10.89 40.94 11.31L40.94 11.31L40.94 11.31Q40.94 12.12 40.96 12.57L40.96 12.57L40.96 12.57Q40.98 13.02 40.98 13.30L40.98 13.30L40.98 13.30Q40.80 13.34 40.58 13.42L40.58 13.42L40.58 13.42Q40.36 13.50 40.14 13.60L40.14 13.60L40.14 13.60Q39.91 13.71 39.70 13.81L39.70 13.81L39.70 13.81Q39.48 13.92 39.31 14.01L39.31 14.01L39.31 14.01Q39.38 13.38 39.43 12.71L39.43 12.71L39.43 12.71Q39.48 12.04 39.50 11.40L39.50 11.40L39.50 11.40Q39.52 10.75 39.50 10.17L39.50 10.17L39.50 10.17Q39.48 9.59 39.42 9.15L39.42 9.15L39.42 9.15Q39.35 8.71 39.26 8.43L39.26 8.43L39.26 8.43Q39.16 8.16 39.02 8.13L39.02 8.13L39.02 8.13Q38.95 8.12 38.86 8.12L38.86 8.12L38.86 8.12Q38.78 8.12 38.70 8.12L38.70 8.12L38.70 8.12Q38.60 8.12 38.50 8.13L38.50 8.13L38.50 8.13Q38.88 8.01 39.26 7.84L39.26 7.84L39.26 7.84Q39.58 7.69 39.97 7.48L39.97 7.48L39.97 7.48Q40.36 7.28 40.73 7.01L40.73 7.01L40.73 7.01Q40.77 7.20 40.80 7.51L40.80 7.51L40.80 7.51Q40.82 7.83 40.85 8.22L40.85 8.22L40.85 8.22Q40.88 8.62 40.89 9.07L40.89 9.07L40.89 9.07Q40.91 9.52 40.94 9.95L40.94 9.95L40.94 9.95Q41.15 9.48 41.43 8.97L41.43 8.97L41.43 8.97Q41.71 8.46 42.03 8.03L42.03 8.03L42.03 8.03Q42.35 7.60 42.71 7.33L42.71 7.33L42.71 7.33Q43.08 7.06 43.44 7.06ZM51.16 9.52L51.16 9.52L51.16 9.52Q51.27 9.79 51.48 10.30L51.48 10.30L51.48 10.30Q51.69 10.82 51.92 11.35L51.92 11.35L51.92 11.35Q52.15 11.89 52.37 12.29L52.37 12.29L52.37 12.29Q52.60 12.70 52.75 12.73L52.75 12.73L52.75 12.73Q52.33 12.96 51.88 13.30L51.88 13.30L51.88 13.30Q51.42 13.64 51.09 14L51.09 14L51.09 14Q51.02 13.69 50.83 13.14L50.83 13.14L50.83 13.14Q50.65 12.59 50.34 11.93L50.34 11.93L50.34 11.93Q50.08 12.19 49.67 12.55L49.67 12.55L49.67 12.55Q49.27 12.91 48.80 13.23L48.80 13.23L48.80 13.23Q48.34 13.55 47.84 13.78L47.84 13.78L47.84 13.78Q47.35 14 46.90 14L46.90 14L46.90 14Q46.58 14 46.23 13.91L46.23 13.91L46.23 13.91Q45.89 13.82 45.61 13.64L45.61 13.64L45.61 13.64Q45.33 13.47 45.16 13.22L45.16 13.22L45.16 13.22Q44.98 12.96 44.98 12.64L44.98 12.64L44.98 12.64Q44.98 12.25 45.39 11.80L45.39 11.80L45.39 11.80Q45.79 11.35 46.40 10.91L46.40 10.91L46.40 10.91Q47.00 10.47 47.70 10.05L47.70 10.05L47.70 10.05Q48.40 9.63 48.99 9.27L48.99 9.27L48.99 9.27Q48.55 8.72 48.17 8.48L48.17 8.48L48.17 8.48Q47.78 8.23 47.32 8.23L47.32 8.23L47.32 8.23Q47.12 8.23 46.81 8.34L46.81 8.34L46.81 8.34Q46.49 8.46 46.20 8.60L46.20 8.60L46.20 8.60Q45.84 8.75 45.47 8.95L45.47 8.95L45.47 8.95Q46.26 8.41 46.98 7.98L46.98 7.98L46.98 7.98Q47.29 7.80 47.61 7.63L47.61 7.63L47.61 7.63Q47.94 7.46 48.24 7.32L48.24 7.32L48.24 7.32Q48.54 7.18 48.80 7.10L48.80 7.10L48.80 7.10Q49.06 7.01 49.24 7.01L49.24 7.01L49.24 7.01Q49.59 7.01 49.89 7.31L49.89 7.31L49.89 7.31Q50.19 7.62 50.44 8.03L50.44 8.03L50.44 8.03Q50.68 8.44 50.85 8.86L50.85 8.86L50.85 8.86Q51.03 9.28 51.16 9.52ZM48.41 12.64L48.41 12.64L48.41 12.64Q48.75 12.64 49.06 12.54L49.06 12.54L49.06 12.54Q49.36 12.45 49.59 12.26L49.59 12.26L49.59 12.26Q49.83 12.08 49.97 11.83L49.97 11.83L49.97 11.83Q50.11 11.58 50.11 11.28L50.11 11.28L50.11 11.28Q49.99 11.10 49.87 10.88L49.87 10.88L49.87 10.88Q49.74 10.67 49.63 10.47L49.63 10.47L49.63 10.47Q49.52 10.22 49.40 9.99L49.40 9.99L49.40 9.99Q49.28 9.76 49.15 9.60L49.15 9.60L49.15 9.60Q48.85 9.72 48.41 9.92L48.41 9.92L48.41 9.92Q47.96 10.12 47.56 10.39L47.56 10.39L47.56 10.39Q47.15 10.67 46.87 10.99L46.87 10.99L46.87 10.99Q46.58 11.31 46.58 11.66L46.58 11.66L46.58 11.66Q46.58 11.86 46.73 12.03L46.73 12.03L46.73 12.03Q46.87 12.21 47.12 12.34L47.12 12.34L47.12 12.34Q47.36 12.47 47.70 12.56L47.70 12.56L47.70 12.56Q48.03 12.64 48.41 12.64ZM54.66 5.73L54.66 5.73L54.66 5.73Q55.10 5.54 55.55 5.26L55.55 5.26L55.55 5.26Q56 4.98 56.50 4.66L56.50 4.66L56.50 4.66Q56.43 4.91 56.38 5.28L56.38 5.28L56.38 5.28Q56.32 5.64 56.28 6.01L56.28 6.01L56.28 6.01Q56.24 6.38 56.21 6.69L56.21 6.69L56.21 6.69Q56.18 7 56.18 7.14L56.18 7.14L56.18 7.14Q56.74 7.29 57.32 7.27L57.32 7.27L57.32 7.27Q57.90 7.24 58.27 7.24L58.27 7.24L58.27 7.24Q58.09 7.41 57.81 7.52L57.81 7.52L57.81 7.52Q57.54 7.64 57.25 7.74L57.25 7.74L57.25 7.74Q56.95 7.84 56.66 7.91L56.66 7.91L56.66 7.91Q56.38 7.98 56.17 8.04L56.17 8.04L56.17 8.04Q56.20 8.55 56.16 9.09L56.16 9.09L56.16 9.09Q56.13 9.62 56.13 10.12L56.13 10.12L56.13 10.12Q56.13 10.61 56.21 11.05L56.21 11.05L56.21 11.05Q56.29 11.49 56.55 11.83L56.55 11.83L56.55 11.83Q56.81 12.17 57.30 12.38L57.30 12.38L57.30 12.38Q57.78 12.60 58.59 12.64L58.59 12.64L58.59 12.64Q58.35 12.84 58.11 13.08L58.11 13.08L58.11 13.08Q57.88 13.31 57.62 13.52L57.62 13.52L57.62 13.52Q57.37 13.72 57.11 13.85L57.11 13.85L57.11 13.85Q56.84 13.99 56.56 13.99L56.56 13.99L56.56 13.99Q56.28 13.99 55.99 13.88L55.99 13.88L55.99 13.88Q55.71 13.78 55.48 13.56L55.48 13.56L55.48 13.56Q55.24 13.34 55.08 13.01L55.08 13.01L55.08 13.01Q54.92 12.68 54.91 12.24L54.91 12.24L54.91 12.24Q54.85 11.12 54.82 10.01L54.82 10.01L54.82 10.01Q54.80 8.90 54.80 8.01L54.80 8.01L54.80 8.01Q54.43 7.98 54.19 7.95L54.19 7.95L54.19 7.95Q53.94 7.91 53.77 7.88L53.77 7.88L53.77 7.88Q53.58 7.85 53.45 7.83L53.45 7.83L53.45 7.83Q53.65 7.74 53.87 7.64L53.87 7.64L53.87 7.64Q54.05 7.56 54.28 7.45L54.28 7.45L54.28 7.45Q54.50 7.34 54.71 7.18L54.71 7.18L54.71 7.18Q54.75 6.75 54.75 6.40L54.75 6.40L54.75 6.40Q54.74 6.05 54.66 5.73ZM67.13 10.01L67.13 10.01L67.13 10.01Q67.13 11.00 66.80 11.75L66.80 11.75L66.80 11.75Q66.47 12.50 66.08 13.01L66.08 13.01L66.08 13.01Q65.62 13.59 65.03 14.01L65.03 14.01L65.03 14.01Q65.25 13.66 65.44 13.24L65.44 13.24L65.44 13.24Q65.59 12.88 65.72 12.42L65.72 12.42L65.72 12.42Q65.84 11.96 65.84 11.44L65.84 11.44L65.84 11.44Q65.84 10.81 65.59 10.22L65.59 10.22L65.59 10.22Q65.34 9.63 64.92 9.18L64.92 9.18L64.92 9.18Q64.50 8.72 63.94 8.44L63.94 8.44L63.94 8.44Q63.39 8.16 62.79 8.16L62.79 8.16L62.79 8.16Q62.50 8.16 62.22 8.23L62.22 8.23L62.22 8.23Q61.94 8.30 61.75 8.48L61.75 8.48L61.75 8.48Q61.75 8.78 61.73 9.27L61.73 9.27L61.73 9.27Q61.71 9.77 61.71 10.42L61.71 10.42L61.71 10.42Q61.71 11.06 61.75 11.82L61.75 11.82L61.75 11.82Q61.78 12.57 61.91 13.38L61.91 13.38L61.91 13.38Q61.42 13.38 60.93 13.58L60.93 13.58L60.93 13.58Q60.45 13.78 60.16 14.01L60.16 14.01L60.16 14.01Q60.17 13.75 60.20 13.24L60.20 13.24L60.20 13.24Q60.23 12.73 60.24 12.10L60.24 12.10L60.24 12.10Q60.26 11.48 60.25 10.82L60.25 10.82L60.25 10.82Q60.24 10.16 60.19 9.61L60.19 9.61L60.19 9.61Q60.13 9.06 60.02 8.68L60.02 8.68L60.02 8.68Q59.92 8.30 59.74 8.25L59.74 8.25L59.74 8.25Q59.50 8.15 59.26 8.15L59.26 8.15L59.26 8.15Q59.14 8.15 59.02 8.16L59.02 8.16L59.02 8.16Q59.50 7.85 59.93 7.60L59.93 7.60L59.93 7.60Q60.30 7.39 60.68 7.22L60.68 7.22L60.68 7.22Q61.05 7.04 61.26 7.04L61.26 7.04L61.26 7.04Q61.45 7.04 61.54 7.07L61.54 7.07L61.54 7.07Q61.64 7.10 61.69 7.21L61.69 7.21L61.69 7.21Q61.74 7.32 61.75 7.55L61.75 7.55L61.75 7.55Q61.75 7.77 61.75 8.16L61.75 8.16L61.75 8.16Q62.36 7.62 63.03 7.33L63.03 7.33L63.03 7.33Q63.71 7.04 64.32 7.04L64.32 7.04L64.32 7.04Q64.95 7.04 65.46 7.29L65.46 7.29L65.46 7.29Q65.98 7.55 66.35 7.96L66.35 7.96L66.35 7.96Q66.72 8.37 66.93 8.90L66.93 8.90L66.93 8.90Q67.13 9.44 67.13 10.01ZM74.70 9.52L74.70 9.52L74.70 9.52Q74.82 9.79 75.03 10.30L75.03 10.30L75.03 10.30Q75.24 10.82 75.47 11.35L75.47 11.35L75.47 11.35Q75.70 11.89 75.92 12.29L75.92 12.29L75.92 12.29Q76.15 12.70 76.30 12.73L76.30 12.73L76.30 12.73Q75.88 12.96 75.42 13.30L75.42 13.30L75.42 13.30Q74.97 13.64 74.63 14L74.63 14L74.63 14Q74.56 13.69 74.38 13.14L74.38 13.14L74.38 13.14Q74.20 12.59 73.89 11.93L73.89 11.93L73.89 11.93Q73.63 12.19 73.22 12.55L73.22 12.55L73.22 12.55Q72.81 12.91 72.35 13.23L72.35 13.23L72.35 13.23Q71.89 13.55 71.39 13.78L71.39 13.78L71.39 13.78Q70.90 14 70.45 14L70.45 14L70.45 14Q70.13 14 69.78 13.91L69.78 13.91L69.78 13.91Q69.44 13.82 69.16 13.64L69.16 13.64L69.16 13.64Q68.88 13.47 68.70 13.22L68.70 13.22L68.70 13.22Q68.53 12.96 68.53 12.64L68.53 12.64L68.53 12.64Q68.53 12.25 68.94 11.80L68.94 11.80L68.94 11.80Q69.34 11.35 69.94 10.91L69.94 10.91L69.94 10.91Q70.55 10.47 71.25 10.05L71.25 10.05L71.25 10.05Q71.95 9.63 72.53 9.27L72.53 9.27L72.53 9.27Q72.10 8.72 71.72 8.48L71.72 8.48L71.72 8.48Q71.33 8.23 70.87 8.23L70.87 8.23L70.87 8.23Q70.67 8.23 70.36 8.34L70.36 8.34L70.36 8.34Q70.04 8.46 69.75 8.60L69.75 8.60L69.75 8.60Q69.38 8.75 69.02 8.95L69.02 8.95L69.02 8.95Q69.80 8.41 70.53 7.98L70.53 7.98L70.53 7.98Q70.84 7.80 71.16 7.63L71.16 7.63L71.16 7.63Q71.48 7.46 71.78 7.32L71.78 7.32L71.78 7.32Q72.09 7.18 72.34 7.10L72.34 7.10L72.34 7.10Q72.60 7.01 72.79 7.01L72.79 7.01L72.79 7.01Q73.14 7.01 73.44 7.31L73.44 7.31L73.44 7.31Q73.74 7.62 73.98 8.03L73.98 8.03L73.98 8.03Q74.23 8.44 74.40 8.86L74.40 8.86L74.40 8.86Q74.58 9.28 74.70 9.52ZM71.96 12.64L71.96 12.64L71.96 12.64Q72.30 12.64 72.60 12.54L72.60 12.54L72.60 12.54Q72.91 12.45 73.14 12.26L73.14 12.26L73.14 12.26Q73.37 12.08 73.51 11.83L73.51 11.83L73.51 11.83Q73.65 11.58 73.65 11.28L73.65 11.28L73.65 11.28Q73.54 11.10 73.42 10.88L73.42 10.88L73.42 10.88Q73.29 10.67 73.18 10.47L73.18 10.47L73.18 10.47Q73.07 10.22 72.95 9.99L72.95 9.99L72.95 9.99Q72.83 9.76 72.70 9.60L72.70 9.60L72.70 9.60Q72.39 9.72 71.95 9.92L71.95 9.92L71.95 9.92Q71.51 10.12 71.11 10.39L71.11 10.39L71.11 10.39Q70.70 10.67 70.41 10.99L70.41 10.99L70.41 10.99Q70.13 11.31 70.13 11.66L70.13 11.66L70.13 11.66Q70.13 11.86 70.27 12.03L70.27 12.03L70.27 12.03Q70.42 12.21 70.67 12.34L70.67 12.34L70.67 12.34Q70.91 12.47 71.25 12.56L71.25 12.56L71.25 12.56Q71.58 12.64 71.96 12.64ZM86.10 7.46L86.10 7.46L86.10 7.46Q86.10 5.78 86.48 4.40L86.48 4.40L86.48 4.40Q86.86 3.02 87.55 2.04L87.55 2.04L87.55 2.04Q88.24 1.06 89.22 0.53L89.22 0.53L89.22 0.53Q90.19-0.01 91.38-0.01L91.38-0.01L91.38-0.01Q92.18-0.01 92.76 0.08L92.76 0.08L92.76 0.08Q93.35 0.17 93.76 0.28L93.76 0.28L93.76 0.28Q94.22 0.41 94.54 0.56L94.54 0.56L94.91-0.01L94.99 0.03L94.99 0.03Q94.46 0.84 94.22 1.80L94.22 1.80L94.22 1.80Q93.98 2.76 93.95 3.98L93.95 3.98L93.81 3.98L93.81 3.98Q93.86 2.95 93.56 2.16L93.56 2.16L93.56 2.16Q93.44 1.82 93.22 1.49L93.22 1.49L93.22 1.49Q93.00 1.16 92.67 0.90L92.67 0.90L92.67 0.90Q92.33 0.64 91.85 0.49L91.85 0.49L91.85 0.49Q91.38 0.34 90.73 0.34L90.73 0.34L90.73 0.34Q90.13 0.34 89.68 0.66L89.68 0.66L89.68 0.66Q89.24 0.98 88.92 1.50L88.92 1.50L88.92 1.50Q88.61 2.03 88.40 2.72L88.40 2.72L88.40 2.72Q88.20 3.42 88.08 4.15L88.08 4.15L88.08 4.15Q87.96 4.89 87.92 5.63L87.92 5.63L87.92 5.63Q87.88 6.37 87.88 7L87.88 7L87.88 7Q87.88 8.32 88.13 9.53L88.13 9.53L88.13 9.53Q88.38 10.74 88.84 11.66L88.84 11.66L88.84 11.66Q89.31 12.59 89.95 13.14L89.95 13.14L89.95 13.14Q90.59 13.69 91.38 13.69L91.38 13.69L91.38 13.69Q92.05 13.69 92.48 13.32L92.48 13.32L92.48 13.32Q92.90 12.95 93.14 12.43L93.14 12.43L93.14 12.43Q93.38 11.91 93.46 11.38L93.46 11.38L93.46 11.38Q93.55 10.85 93.55 10.51L93.55 10.51L93.55 10.51Q93.55 9.80 93.39 9.25L93.39 9.25L93.39 9.25Q93.23 8.69 92.96 8.32L92.96 8.32L92.96 8.32Q92.69 7.94 92.34 7.75L92.34 7.75L92.34 7.75Q91.99 7.56 91.60 7.56L91.60 7.56L91.60 7.56Q91.22 7.56 90.94 7.67L90.94 7.67L90.94 7.67Q90.65 7.78 90.45 7.92L90.45 7.92L90.45 7.92Q90.22 8.08 90.06 8.29L90.06 8.29L90.06 8.29Q90.23 7.99 90.57 7.74L90.57 7.74L90.57 7.74Q90.85 7.55 91.32 7.37L91.32 7.37L91.32 7.37Q91.78 7.20 92.50 7.20L92.50 7.20L92.50 7.20Q93.34 7.20 93.86 7.48L93.86 7.48L93.86 7.48Q94.39 7.76 94.69 8.19L94.69 8.19L94.69 8.19Q94.99 8.62 95.10 9.15L95.10 9.15L95.10 9.15Q95.21 9.67 95.21 10.15L95.21 10.15L95.21 10.15Q95.21 11.23 94.86 11.96L94.86 11.96L94.86 11.96Q94.50 12.70 93.93 13.15L93.93 13.15L93.93 13.15Q93.35 13.59 92.64 13.80L92.64 13.80L92.64 13.80Q91.92 14 91.22 14L91.22 14L91.22 14Q89.67 14 88.68 13.43L88.68 13.43L88.68 13.43Q87.68 12.87 87.11 11.94L87.11 11.94L87.11 11.94Q86.53 11.02 86.32 9.84L86.32 9.84L86.32 9.84Q86.10 8.67 86.10 7.46ZM98.87 5.24L98.87 5.24L98.87 5.24Q98.69 5.38 98.50 5.53L98.50 5.53L98.50 5.53Q98.35 5.67 98.16 5.85L98.16 5.85L98.16 5.85Q97.97 6.03 97.82 6.23L97.82 6.23L97.82 6.23Q97.66 5.98 97.50 5.80L97.50 5.80L97.50 5.80Q97.33 5.61 97.17 5.49L97.17 5.49L97.17 5.49Q97.01 5.33 96.84 5.24L96.84 5.24L96.84 5.24Q97.02 5.10 97.19 4.94L97.19 4.94L97.19 4.94Q97.34 4.80 97.51 4.62L97.51 4.62L97.51 4.62Q97.68 4.44 97.82 4.23L97.82 4.23L97.82 4.23Q97.97 4.47 98.15 4.65L98.15 4.65L98.15 4.65Q98.34 4.84 98.49 4.97L98.49 4.97L98.49 4.97Q98.67 5.12 98.87 5.24ZM96.61 8.12L96.61 8.12L96.61 8.12Q96.95 7.98 97.25 7.88L97.25 7.88L97.25 7.88Q97.55 7.77 97.83 7.65L97.83 7.65L97.83 7.65Q98.10 7.53 98.36 7.38L98.36 7.38L98.36 7.38Q98.62 7.24 98.87 7.01L98.87 7.01L98.87 7.01Q98.98 7.39 98.97 7.93L98.97 7.93L98.97 7.93Q98.95 8.47 98.90 9.06L98.90 9.06L98.90 9.06Q98.85 9.66 98.84 10.26L98.84 10.26L98.84 10.26Q98.83 10.86 98.95 11.35L98.95 11.35L98.95 11.35Q99.06 11.84 99.37 12.17L99.37 12.17L99.37 12.17Q99.67 12.50 100.27 12.56L100.27 12.56L100.27 12.56Q99.67 12.95 99.24 13.30L99.24 13.30L99.24 13.30Q98.81 13.65 98.39 14.01L98.39 14.01L98.39 14.01Q98.27 13.96 98.11 13.89L98.11 13.89L98.11 13.89Q97.96 13.82 97.82 13.69L97.82 13.69L97.82 13.69Q97.68 13.55 97.57 13.35L97.57 13.35L97.57 13.35Q97.47 13.15 97.45 12.82L97.45 12.82L97.45 12.82Q97.47 11.87 97.50 11.01L97.50 11.01L97.50 11.01Q97.52 10.15 97.47 9.50L97.47 9.50L97.47 9.50Q97.41 8.85 97.22 8.48L97.22 8.48L97.22 8.48Q97.03 8.11 96.61 8.12ZM105.91 7.06L105.91 7.06L105.91 7.06Q106.12 7.06 106.36 7.07L106.36 7.07L106.36 7.07Q106.60 7.08 106.75 7.15L106.75 7.15L106.75 7.15Q106.60 7.36 106.46 7.69L106.46 7.69L106.46 7.69Q106.32 8.01 106.20 8.30L106.20 8.30L106.20 8.30Q106.06 8.67 105.95 9.03L105.95 9.03L105.95 9.03Q105.85 8.97 105.70 8.92L105.70 8.92L105.70 8.92Q105.57 8.88 105.39 8.83L105.39 8.83L105.39 8.83Q105.20 8.79 104.93 8.79L104.93 8.79L104.93 8.79Q104.51 8.79 104.24 9.02L104.24 9.02L104.24 9.02Q103.96 9.25 103.80 9.63L103.80 9.63L103.80 9.63Q103.63 10.00 103.54 10.44L103.54 10.44L103.54 10.44Q103.45 10.89 103.40 11.31L103.40 11.31L103.40 11.31Q103.40 12.12 103.43 12.57L103.43 12.57L103.43 12.57Q103.45 13.02 103.45 13.30L103.45 13.30L103.45 13.30Q103.26 13.34 103.05 13.42L103.05 13.42L103.05 13.42Q102.83 13.50 102.61 13.60L102.61 13.60L102.61 13.60Q102.38 13.71 102.17 13.81L102.17 13.81L102.17 13.81Q101.95 13.92 101.78 14.01L101.78 14.01L101.78 14.01Q101.85 13.38 101.90 12.71L101.90 12.71L101.90 12.71Q101.95 12.04 101.97 11.40L101.97 11.40L101.97 11.40Q101.99 10.75 101.97 10.17L101.97 10.17L101.97 10.17Q101.95 9.59 101.89 9.15L101.89 9.15L101.89 9.15Q101.82 8.71 101.72 8.43L101.72 8.43L101.72 8.43Q101.63 8.16 101.49 8.13L101.49 8.13L101.49 8.13Q101.42 8.12 101.33 8.12L101.33 8.12L101.33 8.12Q101.25 8.12 101.16 8.12L101.16 8.12L101.16 8.12Q101.07 8.12 100.97 8.13L100.97 8.13L100.97 8.13Q101.35 8.01 101.72 7.84L101.72 7.84L101.72 7.84Q102.05 7.69 102.44 7.48L102.44 7.48L102.44 7.48Q102.83 7.28 103.19 7.01L103.19 7.01L103.19 7.01Q103.24 7.20 103.26 7.51L103.26 7.51L103.26 7.51Q103.29 7.83 103.32 8.22L103.32 8.22L103.32 8.22Q103.35 8.62 103.36 9.07L103.36 9.07L103.36 9.07Q103.38 9.52 103.40 9.95L103.40 9.95L103.40 9.95Q103.61 9.48 103.89 8.97L103.89 8.97L103.89 8.97Q104.17 8.46 104.50 8.03L104.50 8.03L104.50 8.03Q104.82 7.60 105.18 7.33L105.18 7.33L105.18 7.33Q105.55 7.06 105.91 7.06ZM107.69 6.99L107.69 6.99L107.69 6.99Q107.69 5.42 107.69 4.28L107.69 4.28L107.69 4.28Q107.69 3.14 107.67 2.32L107.67 2.32L107.67 2.32Q107.66 1.50 107.60 0.95L107.60 0.95L107.60 0.95Q107.55 0.41 107.45 0.01L107.45 0.01L107.45 0.01Q108.42 0.01 109.08-0.34L109.08-0.34L109.08-0.34Q109.75-0.70 110.31-1.18L110.31-1.18L110.31-1.18Q110.03-0.77 109.83-0.45L109.83-0.45L109.83-0.45Q109.63-0.13 109.56 0.10L109.56 0.10L109.56 0.10Q109.41 0.59 109.33 1.33L109.33 1.33L109.33 1.33Q109.24 2.07 109.20 2.98L109.20 2.98L109.20 2.98Q109.16 3.89 109.15 4.91L109.15 4.91L109.15 4.91Q109.14 5.94 109.14 6.99L109.14 6.99L109.14 6.99Q109.14 8.05 109.10 8.79L109.10 8.79L109.10 8.79Q109.06 9.52 109.04 10.04L109.04 10.04L109.04 10.04Q109.02 10.57 109.04 10.93L109.04 10.93L109.04 10.93Q109.06 11.28 109.19 11.59L109.19 11.59L109.19 11.59Q109.28 11.79 109.40 11.97L109.40 11.97L109.40 11.97Q109.51 12.15 109.66 12.31L109.66 12.31L109.66 12.31Q109.82 12.47 110.01 12.58L110.01 12.58L110.01 12.58Q110.21 12.68 110.47 12.70L110.47 12.70L110.47 12.70Q109.94 13.08 109.53 13.40L109.53 13.40L109.53 13.40Q109.12 13.72 108.78 14.04L108.78 14.04L108.78 14.04Q108.51 13.90 108.30 13.69L108.30 13.69L108.30 13.69Q108.09 13.47 107.95 13.23L107.95 13.23L107.95 13.23Q107.80 12.99 107.71 12.75L107.71 12.75L107.71 12.75Q107.62 12.52 107.59 12.33L107.59 12.33L107.59 12.33Q107.56 11.80 107.58 11.30L107.58 11.30L107.58 11.30Q107.59 10.79 107.62 10.19L107.62 10.19L107.62 10.19Q107.65 9.59 107.67 8.82L107.67 8.82L107.67 8.82Q107.69 8.05 107.69 6.99ZM114.45 10.86L114.45 10.86L114.45 10.86Q114.18 10.86 113.80 10.81L113.80 10.81L113.80 10.81Q113.41 10.75 113.06 10.58L113.06 10.58L113.06 10.58Q112.70 10.40 112.45 10.08L112.45 10.08L112.45 10.08Q112.20 9.76 112.20 9.23L112.20 9.23L112.20 9.23Q112.20 8.81 112.41 8.48L112.41 8.48L112.41 8.48Q112.63 8.15 112.97 7.90L112.97 7.90L112.97 7.90Q113.30 7.64 113.72 7.48L113.72 7.48L113.72 7.48Q114.14 7.31 114.53 7.20L114.53 7.20L114.53 7.20Q114.93 7.08 115.26 7.04L115.26 7.04L115.26 7.04Q115.58 6.99 115.75 6.99L115.75 6.99L115.75 6.99Q115.88 6.99 116.07 6.99L116.07 6.99L116.07 6.99Q116.26 7 116.45 7.02L116.45 7.02L116.45 7.02Q116.63 7.04 116.81 7.06L116.81 7.06L116.81 7.06Q116.98 7.08 117.07 7.13L117.07 7.13L117.07 7.13Q117.01 7.31 116.95 7.54L116.95 7.54L116.95 7.54Q116.89 7.77 116.83 8.02L116.83 8.02L116.83 8.02Q116.77 8.26 116.74 8.50L116.74 8.50L116.74 8.50Q116.70 8.75 116.70 8.96L116.70 8.96L116.70 8.96Q116.61 8.75 116.44 8.50L116.44 8.50L116.44 8.50Q116.27 8.26 116.04 8.04L116.04 8.04L116.04 8.04Q115.81 7.83 115.51 7.69L115.51 7.69L115.51 7.69Q115.22 7.55 114.87 7.55L114.87 7.55L114.87 7.55Q114.60 7.55 114.40 7.63L114.40 7.63L114.40 7.63Q114.20 7.71 114.05 7.85L114.05 7.85L114.05 7.85Q113.90 7.99 113.83 8.16L113.83 8.16L113.83 8.16Q113.75 8.32 113.75 8.47L113.75 8.47L113.75 8.47Q113.75 8.79 113.90 9.04L113.90 9.04L113.90 9.04Q114.06 9.28 114.31 9.45L114.31 9.45L114.31 9.45Q114.56 9.62 114.89 9.70L114.89 9.70L114.89 9.70Q115.22 9.79 115.57 9.79L115.57 9.79L115.57 9.79Q116.14 9.79 116.56 9.90L116.56 9.90L116.56 9.90Q116.97 10.01 117.23 10.19L117.23 10.19L117.23 10.19Q117.49 10.37 117.61 10.61L117.61 10.61L117.61 10.61Q117.73 10.84 117.73 11.06L117.73 11.06L117.73 11.06Q117.73 11.80 117.31 12.36L117.31 12.36L117.31 12.36Q116.90 12.91 116.31 13.27L116.31 13.27L116.31 13.27Q115.71 13.64 115.06 13.82L115.06 13.82L115.06 13.82Q114.41 14 113.93 14L113.93 14L113.93 14Q113.22 14 112.66 13.82L112.66 13.82L112.66 13.82Q112.10 13.64 111.87 13.44L111.87 13.44L111.87 13.44Q112.03 13.20 112.14 12.77L112.14 12.77L112.14 12.77Q112.25 12.33 112.29 11.76L112.29 11.76L112.29 11.76Q112.48 12.11 112.78 12.40L112.78 12.40L112.78 12.40Q113.09 12.68 113.47 12.88L113.47 12.88L113.47 12.88Q113.85 13.08 114.28 13.19L114.28 13.19L114.28 13.19Q114.70 13.30 115.15 13.30L115.15 13.30L115.15 13.30Q115.30 13.30 115.50 13.26L115.50 13.26L115.50 13.26Q115.70 13.22 115.86 13.12L115.86 13.12L115.86 13.12Q116.03 13.02 116.15 12.85L116.15 12.85L116.15 12.85Q116.27 12.68 116.27 12.42L116.27 12.42L116.27 12.42Q116.27 12.17 116.14 11.89L116.14 11.89L116.14 11.89Q116.02 11.62 115.78 11.39L115.78 11.39L115.78 11.39Q115.54 11.16 115.21 11.01L115.21 11.01L115.21 11.01Q114.87 10.86 114.45 10.86ZM128.79 6.36L128.79 6.36L128.79 6.36Q128.79 5.25 128.71 4.16L128.71 4.16L128.71 4.16Q128.63 3.08 128.53 2.21L128.53 2.21L128.53 2.21Q128.42 1.20 128.30 0.28L128.30 0.28L127.61 0.15L127.61 0.01L127.61 0.01Q127.78 0.06 128.02 0.08L128.02 0.08L128.02 0.08Q128.21 0.11 128.49 0.13L128.49 0.13L128.49 0.13Q128.77 0.15 129.11 0.15L129.11 0.15L129.11 0.15Q129.57 0.15 129.95 0.13L129.95 0.13L129.95 0.13Q130.33 0.11 130.61 0.08L130.61 0.08L130.61 0.08Q130.93 0.06 131.19 0.01L131.19 0.01L131.19 0.15L130.34 0.28L130.34 0.28Q130.28 0.59 130.24 1.33L130.24 1.33L130.24 1.33Q130.21 1.96 130.19 3.10L130.19 3.10L130.19 3.10Q130.16 4.24 130.16 6.12L130.16 6.12L135.00 6.12L135.00 6.12Q135.00 4.63 134.96 3.54L134.96 3.54L134.96 3.54Q134.92 2.45 134.86 1.72L134.86 1.72L134.86 1.72Q134.81 0.87 134.72 0.28L134.72 0.28L133.95 0.15L133.95 0.01L133.95 0.01Q134.18 0.06 134.44 0.08L134.44 0.08L134.44 0.08Q134.68 0.11 135.00 0.13L135.00 0.13L135.00 0.13Q135.32 0.15 135.73 0.15L135.73 0.15L135.73 0.15Q136.09 0.15 136.42 0.13L136.42 0.13L136.42 0.13Q136.74 0.11 136.99 0.08L136.99 0.08L136.99 0.08Q137.28 0.06 137.54 0.01L137.54 0.01L137.54 0.15L136.63 0.28L136.63 0.28Q136.54 1.08 136.49 2.07L136.49 2.07L136.49 2.07Q136.43 2.93 136.39 4.10L136.39 4.10L136.39 4.10Q136.35 5.28 136.35 6.71L136.35 6.71L136.35 6.71Q136.35 8.67 136.40 10.00L136.40 10.00L136.40 10.00Q136.46 11.34 136.53 12.18L136.53 12.18L136.53 12.18Q136.61 13.16 136.72 13.78L136.72 13.78L137.40 13.86L137.40 14L137.40 14Q137.20 13.97 136.95 13.93L136.95 13.93L136.95 13.93Q136.72 13.90 136.42 13.88L136.42 13.88L136.42 13.88Q136.12 13.86 135.73 13.86L135.73 13.86L135.73 13.86Q135.30 13.86 134.97 13.88L134.97 13.88L134.97 13.88Q134.65 13.90 134.41 13.93L134.41 13.93L134.41 13.93Q134.15 13.97 133.95 14L133.95 14L133.95 13.86L134.60 13.78L134.60 13.78Q134.71 12.94 134.79 11.90L134.79 11.90L134.79 11.90Q134.86 11.02 134.93 9.79L134.93 9.79L134.93 9.79Q135.00 8.57 135.00 7.08L135.00 7.08L130.16 7.08L130.16 7.08Q130.16 8.53 130.19 9.75L130.19 9.75L130.19 9.75Q130.21 10.98 130.24 11.87L130.24 11.87L130.24 11.87Q130.28 12.92 130.34 13.78L130.34 13.78L131.24 13.86L131.24 14L131.24 14Q131.00 13.97 130.70 13.93L130.70 13.93L130.70 13.93Q130.45 13.90 130.11 13.88L130.11 13.88L130.11 13.88Q129.77 13.86 129.37 13.86L129.37 13.86L129.37 13.86Q128.97 13.86 128.64 13.88L128.64 13.88L128.64 13.88Q128.31 13.90 128.07 13.93L128.07 13.93L128.07 13.93Q127.79 13.97 127.57 14L127.57 14L127.53 13.92L128.39 13.78L128.39 13.78Q128.51 12.92 128.59 11.80L128.59 11.80L128.59 11.80Q128.66 10.84 128.72 9.47L128.72 9.47L128.72 9.47Q128.79 8.11 128.79 6.36ZM140.15 9.66L140.15 9.66L140.15 9.66Q140.15 10.08 140.31 10.59L140.31 10.59L140.31 10.59Q140.48 11.10 140.85 11.54L140.85 11.54L140.85 11.54Q141.23 11.98 141.84 12.29L141.84 12.29L141.84 12.29Q142.45 12.59 143.33 12.59L143.33 12.59L143.33 12.59Q143.79 12.59 144.06 12.46L144.06 12.46L144.06 12.46Q144.33 12.33 144.45 12.14L144.45 12.14L144.45 12.14Q144.58 11.96 144.61 11.75L144.61 11.75L144.61 11.75Q144.65 11.54 144.65 11.35L144.65 11.35L144.65 11.35Q144.65 10.75 144.42 10.16L144.42 10.16L144.42 10.16Q144.19 9.58 143.78 9.11L143.78 9.11L143.78 9.11Q143.37 8.65 142.82 8.37L142.82 8.37L142.82 8.37Q142.27 8.09 141.62 8.09L141.62 8.09L141.62 8.09Q141.20 8.09 140.92 8.25L140.92 8.25L140.92 8.25Q140.64 8.41 140.47 8.66L140.47 8.66L140.47 8.66Q140.29 8.90 140.22 9.18L140.22 9.18L140.22 9.18Q140.15 9.45 140.15 9.66ZM143.23 7L143.23 7L143.23 7Q143.65 7 144.14 7.18L144.14 7.18L144.14 7.18Q144.62 7.36 145.03 7.73L145.03 7.73L145.03 7.73Q145.45 8.09 145.71 8.66L145.71 8.66L145.71 8.66Q145.98 9.23 145.98 9.98L145.98 9.98L145.98 9.98Q145.98 10.42 145.78 10.88L145.78 10.88L145.78 10.88Q145.57 11.34 145.24 11.79L145.24 11.79L145.24 11.79Q144.91 12.24 144.49 12.63L144.49 12.63L144.49 12.63Q144.06 13.03 143.61 13.34L143.61 13.34L143.61 13.34Q143.15 13.64 142.69 13.82L142.69 13.82L142.69 13.82Q142.24 14 141.86 14L141.86 14L141.86 14Q141.29 14 140.76 13.76L140.76 13.76L140.76 13.76Q140.24 13.52 139.83 13.12L139.83 13.12L139.83 13.12Q139.43 12.71 139.18 12.19L139.18 12.19L139.18 12.19Q138.94 11.66 138.94 11.07L138.94 11.07L138.94 11.07Q138.94 10.28 139.37 9.54L139.37 9.54L139.37 9.54Q139.80 8.81 140.45 8.24L140.45 8.24L140.45 8.24Q141.09 7.67 141.84 7.34L141.84 7.34L141.84 7.34Q142.59 7 143.23 7ZM149.95 10.86L149.95 10.86L149.95 10.86Q149.69 10.86 149.30 10.81L149.30 10.81L149.30 10.81Q148.92 10.75 148.56 10.58L148.56 10.58L148.56 10.58Q148.20 10.40 147.95 10.08L147.95 10.08L147.95 10.08Q147.70 9.76 147.70 9.23L147.70 9.23L147.70 9.23Q147.70 8.81 147.92 8.48L147.92 8.48L147.92 8.48Q148.13 8.15 148.47 7.90L148.47 7.90L148.47 7.90Q148.81 7.64 149.23 7.48L149.23 7.48L149.23 7.48Q149.65 7.31 150.04 7.20L150.04 7.20L150.04 7.20Q150.43 7.08 150.76 7.04L150.76 7.04L150.76 7.04Q151.09 6.99 151.26 6.99L151.26 6.99L151.26 6.99Q151.38 6.99 151.57 6.99L151.57 6.99L151.57 6.99Q151.76 7 151.95 7.02L151.95 7.02L151.95 7.02Q152.14 7.04 152.31 7.06L152.31 7.06L152.31 7.06Q152.49 7.08 152.57 7.13L152.57 7.13L152.57 7.13Q152.52 7.31 152.45 7.54L152.45 7.54L152.45 7.54Q152.39 7.77 152.33 8.02L152.33 8.02L152.33 8.02Q152.28 8.26 152.24 8.50L152.24 8.50L152.24 8.50Q152.21 8.75 152.21 8.96L152.21 8.96L152.21 8.96Q152.11 8.75 151.94 8.50L151.94 8.50L151.94 8.50Q151.77 8.26 151.54 8.04L151.54 8.04L151.54 8.04Q151.31 7.83 151.02 7.69L151.02 7.69L151.02 7.69Q150.72 7.55 150.37 7.55L150.37 7.55L150.37 7.55Q150.11 7.55 149.91 7.63L149.91 7.63L149.91 7.63Q149.70 7.71 149.56 7.85L149.56 7.85L149.56 7.85Q149.41 7.99 149.33 8.16L149.33 8.16L149.33 8.16Q149.25 8.32 149.25 8.47L149.25 8.47L149.25 8.47Q149.25 8.79 149.41 9.04L149.41 9.04L149.41 9.04Q149.56 9.28 149.81 9.45L149.81 9.45L149.81 9.45Q150.07 9.62 150.40 9.70L150.40 9.70L150.40 9.70Q150.72 9.79 151.07 9.79L151.07 9.79L151.07 9.79Q151.65 9.79 152.06 9.90L152.06 9.90L152.06 9.90Q152.47 10.01 152.73 10.19L152.73 10.19L152.73 10.19Q152.99 10.37 153.11 10.61L153.11 10.61L153.11 10.61Q153.23 10.84 153.23 11.06L153.23 11.06L153.23 11.06Q153.23 11.80 152.82 12.36L152.82 12.36L152.82 12.36Q152.40 12.91 151.81 13.27L151.81 13.27L151.81 13.27Q151.21 13.64 150.56 13.82L150.56 13.82L150.56 13.82Q149.91 14 149.44 14L149.44 14L149.44 14Q148.72 14 148.16 13.82L148.16 13.82L148.16 13.82Q147.60 13.64 147.38 13.44L147.38 13.44L147.38 13.44Q147.53 13.20 147.64 12.77L147.64 12.77L147.64 12.77Q147.76 12.33 147.80 11.76L147.80 11.76L147.80 11.76Q147.98 12.11 148.29 12.40L148.29 12.40L148.29 12.40Q148.60 12.68 148.97 12.88L148.97 12.88L148.97 12.88Q149.35 13.08 149.78 13.19L149.78 13.19L149.78 13.19Q150.21 13.30 150.65 13.30L150.65 13.30L150.65 13.30Q150.81 13.30 151.00 13.26L151.00 13.26L151.00 13.26Q151.20 13.22 151.37 13.12L151.37 13.12L151.37 13.12Q151.54 13.02 151.66 12.85L151.66 12.85L151.66 12.85Q151.77 12.68 151.77 12.42L151.77 12.42L151.77 12.42Q151.77 12.17 151.65 11.89L151.65 11.89L151.65 11.89Q151.52 11.62 151.28 11.39L151.28 11.39L151.28 11.39Q151.05 11.16 150.71 11.01L150.71 11.01L150.71 11.01Q150.37 10.86 149.95 10.86ZM155.83 5.73L155.83 5.73L155.83 5.73Q156.28 5.54 156.73 5.26L156.73 5.26L156.73 5.26Q157.18 4.98 157.68 4.66L157.68 4.66L157.68 4.66Q157.61 4.91 157.56 5.28L157.56 5.28L157.56 5.28Q157.50 5.64 157.46 6.01L157.46 6.01L157.46 6.01Q157.42 6.38 157.39 6.69L157.39 6.69L157.39 6.69Q157.36 7 157.36 7.14L157.36 7.14L157.36 7.14Q157.92 7.29 158.50 7.27L158.50 7.27L158.50 7.27Q159.08 7.24 159.45 7.24L159.45 7.24L159.45 7.24Q159.26 7.41 158.99 7.52L158.99 7.52L158.99 7.52Q158.72 7.64 158.42 7.74L158.42 7.74L158.42 7.74Q158.13 7.84 157.84 7.91L157.84 7.91L157.84 7.91Q157.56 7.98 157.35 8.04L157.35 8.04L157.35 8.04Q157.37 8.55 157.34 9.09L157.34 9.09L157.34 9.09Q157.30 9.62 157.30 10.12L157.30 10.12L157.30 10.12Q157.30 10.61 157.39 11.05L157.39 11.05L157.39 11.05Q157.47 11.49 157.73 11.83L157.73 11.83L157.73 11.83Q157.99 12.17 158.47 12.38L158.47 12.38L158.47 12.38Q158.96 12.60 159.77 12.64L159.77 12.64L159.77 12.64Q159.53 12.84 159.29 13.08L159.29 13.08L159.29 13.08Q159.05 13.31 158.80 13.52L158.80 13.52L158.80 13.52Q158.55 13.72 158.28 13.85L158.28 13.85L158.28 13.85Q158.02 13.99 157.74 13.99L157.74 13.99L157.74 13.99Q157.46 13.99 157.17 13.88L157.17 13.88L157.17 13.88Q156.88 13.78 156.65 13.56L156.65 13.56L156.65 13.56Q156.42 13.34 156.26 13.01L156.26 13.01L156.26 13.01Q156.10 12.68 156.09 12.24L156.09 12.24L156.09 12.24Q156.03 11.12 156.00 10.01L156.00 10.01L156.00 10.01Q155.97 8.90 155.97 8.01L155.97 8.01L155.97 8.01Q155.61 7.98 155.37 7.95L155.37 7.95L155.37 7.95Q155.12 7.91 154.95 7.88L154.95 7.88L154.95 7.88Q154.76 7.85 154.63 7.83L154.63 7.83L154.63 7.83Q154.83 7.74 155.05 7.64L155.05 7.64L155.05 7.64Q155.23 7.56 155.46 7.45L155.46 7.45L155.46 7.45Q155.68 7.34 155.89 7.18L155.89 7.18L155.89 7.18Q155.93 6.75 155.93 6.40L155.93 6.40L155.93 6.40Q155.92 6.05 155.83 5.73ZM165.82 12.49L165.82 12.49L165.82 12.49Q166.22 12.49 166.58 12.38L166.58 12.38L166.58 12.38Q166.94 12.28 167.20 12.14L167.20 12.14L167.20 12.14Q167.51 11.98 167.78 11.79L167.78 11.79L167.78 11.79Q167.40 12.42 166.87 12.91L166.87 12.91L166.87 12.91Q166.42 13.33 165.74 13.67L165.74 13.67L165.74 13.67Q165.06 14.01 164.16 14.01L164.16 14.01L164.16 14.01Q163.52 14.01 162.93 13.79L162.93 13.79L162.93 13.79Q162.34 13.57 161.89 13.15L161.89 13.15L161.89 13.15Q161.43 12.73 161.17 12.12L161.17 12.12L161.17 12.12Q160.90 11.51 160.90 10.75L160.90 10.75L160.90 10.75Q160.90 10.07 161.12 9.54L161.12 9.54L161.12 9.54Q161.34 9.02 161.69 8.62L161.69 8.62L161.69 8.62Q162.04 8.23 162.47 7.97L162.47 7.97L162.47 7.97Q162.90 7.71 163.32 7.55L163.32 7.55L163.32 7.55Q164.67 7 165.16 7L165.16 7L165.16 7Q165.68 7 166.06 7.17L166.06 7.17L166.06 7.17Q166.45 7.35 166.73 7.56L166.73 7.56L166.73 7.56Q167.03 7.81 167.27 8.12L167.27 8.12L162.65 9.98L162.65 9.98Q162.75 10.57 162.93 11.03L162.93 11.03L162.93 11.03Q163.11 11.49 163.46 11.82L163.46 11.82L163.46 11.82Q163.81 12.14 164.37 12.31L164.37 12.31L164.37 12.31Q164.93 12.49 165.82 12.49ZM163.55 7.81L163.55 7.81L163.55 7.81Q163.35 7.81 163.17 7.92L163.17 7.92L163.17 7.92Q162.99 8.02 162.84 8.19L162.84 8.19L162.84 8.19Q162.69 8.36 162.62 8.57L162.62 8.57L162.62 8.57Q162.54 8.78 162.55 8.99L162.55 8.99L162.55 8.99Q162.55 9.21 162.56 9.42L162.56 9.42L162.56 9.42Q162.57 9.63 162.61 9.84L162.61 9.84L164.96 8.76L164.96 8.76Q164.82 8.50 164.61 8.29L164.61 8.29L164.61 8.29Q164.43 8.11 164.16 7.96L164.16 7.96L164.16 7.96Q163.90 7.81 163.55 7.81ZM169.41 6.99L169.41 6.99L169.41 6.99Q169.41 5.42 169.41 4.28L169.41 4.28L169.41 4.28Q169.41 3.14 169.40 2.32L169.40 2.32L169.40 2.32Q169.39 1.50 169.33 0.95L169.33 0.95L169.33 0.95Q169.27 0.41 169.18 0.01L169.18 0.01L169.18 0.01Q170.14 0.01 170.81-0.34L170.81-0.34L170.81-0.34Q171.47-0.70 172.03-1.18L172.03-1.18L172.03-1.18Q171.75-0.77 171.56-0.45L171.56-0.45L171.56-0.45Q171.36-0.13 171.29 0.10L171.29 0.10L171.29 0.10Q171.14 0.59 171.05 1.33L171.05 1.33L171.05 1.33Q170.97 2.07 170.93 2.98L170.93 2.98L170.93 2.98Q170.88 3.89 170.88 4.91L170.88 4.91L170.88 4.91Q170.87 5.94 170.87 6.99L170.87 6.99L170.87 6.99Q170.87 8.05 170.83 8.79L170.83 8.79L170.83 8.79Q170.79 9.52 170.77 10.04L170.77 10.04L170.77 10.04Q170.74 10.57 170.77 10.93L170.77 10.93L170.77 10.93Q170.79 11.28 170.91 11.59L170.91 11.59L170.91 11.59Q171.01 11.79 171.12 11.97L171.12 11.97L171.12 11.97Q171.23 12.15 171.39 12.31L171.39 12.31L171.39 12.31Q171.54 12.47 171.74 12.58L171.74 12.58L171.74 12.58Q171.93 12.68 172.20 12.70L172.20 12.70L172.20 12.70Q171.67 13.08 171.26 13.40L171.26 13.40L171.26 13.40Q170.84 13.72 170.51 14.04L170.51 14.04L170.51 14.04Q170.24 13.90 170.03 13.69L170.03 13.69L170.03 13.69Q169.82 13.47 169.67 13.23L169.67 13.23L169.67 13.23Q169.53 12.99 169.44 12.75L169.44 12.75L169.44 12.75Q169.34 12.52 169.32 12.33L169.32 12.33L169.32 12.33Q169.29 11.80 169.30 11.30L169.30 11.30L169.30 11.30Q169.32 10.79 169.34 10.19L169.34 10.19L169.34 10.19Q169.37 9.59 169.39 8.82L169.39 8.82L169.39 8.82Q169.41 8.05 169.41 6.99Z"></path></g> <!----> <g data-v-5f19e91b="" id="79eafa58-9124-225e-6de8-100c7ef517b9" transform="matrix(0.7901000128851996,0,0,0.7901000128851996,-11.184671945428995,-11.060235670669819)" stroke="none" fill="black"><path d="M67.779,85.551"></path><path d="M67.774,85.546"></path><path d="M67.775,85.548"></path><path d="M81.995,76.658h-3.114V41.107h2.443c1.099,0,1.998-0.5,1.998-1.111s0-1.112,0-1.112h0.005L63.329,14.442L43.331,38.884  c0,0,0,0.501,0,1.112s0.9,1.111,1.998,1.111h2.443v35.551H32.207v-8.147h13.338l-7.221-9.628h4.993l-6.665-8.888h3.33l-6.667-8.888  h3.332l-6.665-8.888l-6.665,8.888h3.334l-6.665,8.888h3.335l-6.665,8.888h5.001l-7.22,9.628h13.32v8.147h-9.765  c-0.732,0-1.332,0.602-1.332,1.332v1.777c0,0.735,0.6,1.337,1.332,1.337h64c0.732,0,1.332-0.602,1.332-1.337V77.99  C83.327,77.26,82.728,76.658,81.995,76.658z M58.883,54.438v4.445h-6.664v-4.445H58.883z M52.219,47.771v-4.444h6.664v4.444H52.219z   M61.106,76.658v-11.11h4.441v11.11H61.106z M74.436,54.438v4.445h-6.665v-4.445H74.436z M67.771,47.771v-4.444h6.665v4.444H67.771z  "></path></g></svg>